<svg xmlns="http://www.w3.org/2000/svg" width="675" height="900" viewBox="0 0 675 900" role="img" aria-labelledby="title desc">
  <title id="title">Справочная схема точки R7 Фу-лю</title>
  <desc id="desc">Внутренняя сторона нижней части голени. Точка R7 отмечена перед ахилловым сухожилием, на два пропорциональных цуня выше внутренней лодыжки.</desc>
  <defs>
    <linearGradient id="paper" x1="0" y1="0" x2="1" y2="1"><stop offset="0" stop-color="#f8f4e9"/><stop offset="1" stop-color="#e7efe9"/></linearGradient>
    <linearGradient id="skin" x1="0" y1="0" x2="1" y2="0"><stop offset="0" stop-color="#dfaa84"/><stop offset=".55" stop-color="#f2ccb0"/><stop offset="1" stop-color="#d4936c"/></linearGradient>
    <filter id="shadow" x="-30%" y="-30%" width="160%" height="160%"><feDropShadow dx="0" dy="6" stdDeviation="7" flood-color="#173f3b" flood-opacity=".22"/></filter>
  </defs>
  <rect width="675" height="900" rx="28" fill="url(#paper)"/>
  <text x="38" y="58" fill="#173f3b" font-family="Georgia, serif" font-size="32">R7 · Фу-лю</text>
  <text x="38" y="91" fill="#647473" font-family="Arial, sans-serif" font-size="18">Внутренняя сторона голени</text>
  <path d="M257 126 C248 264 248 400 259 543 C264 617 242 669 198 716 C170 746 157 790 160 849 L502 849 C498 800 481 764 447 735 C402 697 382 643 385 572 C390 436 407 264 391 126 Z" fill="url(#skin)" stroke="#9d684d" stroke-width="5"/>
  <path d="M306 153 C313 301 302 441 306 588 C309 660 286 716 245 767" fill="none" stroke="#87533f" stroke-width="14" stroke-linecap="round" opacity=".78"/>
  <path d="M271 670 C246 706 229 753 229 812" fill="none" stroke="#f4e6d6" stroke-width="22" stroke-linecap="round" opacity=".82"/>
  <ellipse cx="383" cy="760" rx="55" ry="47" fill="#d9966d" stroke="#925e45" stroke-width="5"/>
  <path d="M298 743 L298 594" fill="none" stroke="#d4a75d" stroke-width="5" stroke-dasharray="11 10"/>
  <path d="M278 743 H318 M278 594 H318" fill="none" stroke="#9a6a35" stroke-width="5"/>
  <text x="332" y="675" fill="#725335" font-family="Arial, sans-serif" font-size="21" font-weight="700">2 пропорциональных</text>
  <text x="332" y="701" fill="#725335" font-family="Arial, sans-serif" font-size="21" font-weight="700">цуня</text>
  <circle cx="288" cy="590" r="19" fill="#b7352d" stroke="#fff" stroke-width="7" filter="url(#shadow)"/>
  <path d="M306 579 C362 542 422 527 481 527" fill="none" stroke="#b7352d" stroke-width="7" stroke-linecap="round"/>
  <rect x="444" y="484" width="188" height="80" rx="40" fill="#b7352d" filter="url(#shadow)"/>
  <text x="538" y="536" text-anchor="middle" fill="#fff" font-family="Arial, sans-serif" font-size="31" font-weight="800">R7 · Фу-лю</text>
  <path d="M242 767 C174 774 119 767 71 741" fill="none" stroke="#176c62" stroke-width="4"/>
  <text x="58" y="722" fill="#176c62" font-family="Arial, sans-serif" font-size="18" font-weight="700">ахиллово</text>
  <text x="58" y="744" fill="#176c62" font-family="Arial, sans-serif" font-size="18" font-weight="700">сухожилие</text>
  <path d="M384 760 C465 776 526 767 574 744" fill="none" stroke="#176c62" stroke-width="4"/>
  <text x="475" y="718" fill="#176c62" font-family="Arial, sans-serif" font-size="18" font-weight="700">внутренняя</text>
  <text x="475" y="740" fill="#176c62" font-family="Arial, sans-serif" font-size="18" font-weight="700">лодыжка</text>
  <text x="38" y="866" fill="#647473" font-family="Arial, sans-serif" font-size="15">Справочный ориентир. Точную локализацию проверяет врач-рефлексотерапевт.</text>
</svg>
